<mxfile host="Electron" modified="2024-04-24T07:30:54.066Z" agent="Mozilla/5.0 (Windows NT 10.0; Win64; x64) AppleWebKit/537.36 (KHTML, like Gecko) draw.io/23.1.5 Chrome/120.0.6099.109 Electron/28.1.0 Safari/537.36" etag="wP9pAKAif71D6FnwbeB8" version="23.1.5" type="device">
  <diagram name="Page-1" id="b5b7bab2-c9e2-2cf4-8b2a-24fd1a2a6d21">
    <mxGraphModel dx="1434" dy="844" grid="1" gridSize="10" guides="1" tooltips="1" connect="1" arrows="1" fold="1" page="1" pageScale="1" pageWidth="827" pageHeight="1169" background="none" math="0" shadow="0">
      <root>
        <mxCell id="0" />
        <mxCell id="1" parent="0" />
        <mxCell id="Uz8zbHI2S5k9cspp1Bcf-1" value="Рабочее место" style="verticalAlign=top;align=left;spacingTop=8;spacingLeft=2;spacingRight=12;shape=cube;size=10;direction=south;fontStyle=4;html=1;whiteSpace=wrap;" vertex="1" parent="1">
          <mxGeometry x="380" y="170" width="340" height="220" as="geometry" />
        </mxCell>
        <mxCell id="Uz8zbHI2S5k9cspp1Bcf-4" value="" style="group" vertex="1" connectable="0" parent="1">
          <mxGeometry x="380" y="460" width="180" height="120" as="geometry" />
        </mxCell>
        <mxCell id="Uz8zbHI2S5k9cspp1Bcf-2" value="Периферийные устройства" style="verticalAlign=top;align=left;spacingTop=8;spacingLeft=2;spacingRight=12;shape=cube;size=10;direction=south;fontStyle=4;html=1;whiteSpace=wrap;movable=1;resizable=1;rotatable=1;deletable=1;editable=1;locked=0;connectable=1;" vertex="1" parent="Uz8zbHI2S5k9cspp1Bcf-4">
          <mxGeometry width="180" height="120" as="geometry" />
        </mxCell>
        <mxCell id="Uz8zbHI2S5k9cspp1Bcf-3" value="Принтер" style="shape=module;align=left;spacingLeft=20;align=center;verticalAlign=top;whiteSpace=wrap;html=1;movable=1;resizable=1;rotatable=1;deletable=1;editable=1;locked=0;connectable=1;" vertex="1" parent="Uz8zbHI2S5k9cspp1Bcf-4">
          <mxGeometry x="40" y="40" width="100" height="50" as="geometry" />
        </mxCell>
        <mxCell id="Uz8zbHI2S5k9cspp1Bcf-5" value="ОС Windows" style="shape=module;align=left;spacingLeft=20;align=center;verticalAlign=top;whiteSpace=wrap;html=1;" vertex="1" parent="1">
          <mxGeometry x="400" y="220" width="100" height="50" as="geometry" />
        </mxCell>
        <mxCell id="Uz8zbHI2S5k9cspp1Bcf-6" value="Программа ИС" style="shape=module;align=left;spacingLeft=20;align=center;verticalAlign=top;whiteSpace=wrap;html=1;" vertex="1" parent="1">
          <mxGeometry x="580" y="230" width="100" height="50" as="geometry" />
        </mxCell>
        <mxCell id="Uz8zbHI2S5k9cspp1Bcf-7" value="База данных" style="shape=module;align=left;spacingLeft=20;align=center;verticalAlign=top;whiteSpace=wrap;html=1;" vertex="1" parent="1">
          <mxGeometry x="580" y="320" width="100" height="50" as="geometry" />
        </mxCell>
        <mxCell id="Uz8zbHI2S5k9cspp1Bcf-12" value="" style="endArrow=classic;html=1;rounded=0;exitX=0.25;exitY=1;exitDx=0;exitDy=0;entryX=-0.008;entryY=0.767;entryDx=0;entryDy=0;entryPerimeter=0;" edge="1" parent="1" source="Uz8zbHI2S5k9cspp1Bcf-5" target="Uz8zbHI2S5k9cspp1Bcf-2">
          <mxGeometry width="50" height="50" relative="1" as="geometry">
            <mxPoint x="440" y="460" as="sourcePoint" />
            <mxPoint x="490" y="410" as="targetPoint" />
          </mxGeometry>
        </mxCell>
        <mxCell id="Uz8zbHI2S5k9cspp1Bcf-13" value="" style="endArrow=classic;html=1;rounded=0;exitX=-0.017;exitY=0.644;exitDx=0;exitDy=0;exitPerimeter=0;" edge="1" parent="1" source="Uz8zbHI2S5k9cspp1Bcf-2" target="Uz8zbHI2S5k9cspp1Bcf-5">
          <mxGeometry width="50" height="50" relative="1" as="geometry">
            <mxPoint x="460" y="480" as="sourcePoint" />
            <mxPoint x="422" y="509" as="targetPoint" />
          </mxGeometry>
        </mxCell>
        <mxCell id="Uz8zbHI2S5k9cspp1Bcf-15" value="" style="endArrow=classic;html=1;rounded=0;exitX=1;exitY=0.75;exitDx=0;exitDy=0;entryX=0;entryY=0;entryDx=0;entryDy=35;entryPerimeter=0;" edge="1" parent="1" source="Uz8zbHI2S5k9cspp1Bcf-5" target="Uz8zbHI2S5k9cspp1Bcf-6">
          <mxGeometry width="50" height="50" relative="1" as="geometry">
            <mxPoint x="700" y="360" as="sourcePoint" />
            <mxPoint x="750" y="310" as="targetPoint" />
          </mxGeometry>
        </mxCell>
        <mxCell id="Uz8zbHI2S5k9cspp1Bcf-16" value="" style="endArrow=classic;html=1;rounded=0;entryX=1;entryY=0.25;entryDx=0;entryDy=0;exitX=0;exitY=0;exitDx=0;exitDy=15;exitPerimeter=0;" edge="1" parent="1" source="Uz8zbHI2S5k9cspp1Bcf-6" target="Uz8zbHI2S5k9cspp1Bcf-5">
          <mxGeometry width="50" height="50" relative="1" as="geometry">
            <mxPoint x="700" y="360" as="sourcePoint" />
            <mxPoint x="750" y="310" as="targetPoint" />
          </mxGeometry>
        </mxCell>
        <mxCell id="Uz8zbHI2S5k9cspp1Bcf-17" value="" style="endArrow=classic;html=1;rounded=0;exitX=0.25;exitY=0;exitDx=0;exitDy=0;entryX=0.25;entryY=1;entryDx=0;entryDy=0;" edge="1" parent="1" source="Uz8zbHI2S5k9cspp1Bcf-7" target="Uz8zbHI2S5k9cspp1Bcf-6">
          <mxGeometry width="50" height="50" relative="1" as="geometry">
            <mxPoint x="700" y="360" as="sourcePoint" />
            <mxPoint x="750" y="310" as="targetPoint" />
          </mxGeometry>
        </mxCell>
        <mxCell id="Uz8zbHI2S5k9cspp1Bcf-18" value="" style="endArrow=classic;html=1;rounded=0;exitX=0.5;exitY=1;exitDx=0;exitDy=0;entryX=0.5;entryY=0;entryDx=0;entryDy=0;" edge="1" parent="1" source="Uz8zbHI2S5k9cspp1Bcf-6" target="Uz8zbHI2S5k9cspp1Bcf-7">
          <mxGeometry width="50" height="50" relative="1" as="geometry">
            <mxPoint x="525" y="330" as="sourcePoint" />
            <mxPoint x="615" y="290" as="targetPoint" />
          </mxGeometry>
        </mxCell>
      </root>
    </mxGraphModel>
  </diagram>
</mxfile>
